<?xml version="1.0" encoding="utf-8"?>
<!-- Generator: Adobe Illustrator 24.0.3, SVG Export Plug-In . SVG Version: 6.00 Build 0)  -->
<svg version="1.1" xmlns="http://www.w3.org/2000/svg" xmlns:xlink="http://www.w3.org/1999/xlink" x="0px" y="0px"
	 viewBox="0 0 425.2 212.6" style="enable-background:new 0 0 425.2 212.6;" xml:space="preserve">
<style type="text/css">
	.st0{fill:#EF3F24;}
	.st1{fill:#FED61A;}
	.st2{fill:url(#bground-blue_1_);}
	.st3{fill:#FFFFFF;}
	.st4{font-family:'BebasNeue-Regular';}
	.st5{font-size:70px;}
	.st6{font-family:'Roboto-Regular';}
	.st7{font-size:34px;}
	.st8{fill:none;stroke:#1D427A;stroke-miterlimit:10;}
	.st9{font-size:18px;}
</style>
<g id="bground">
	
		<image style="display:none;overflow:visible;" width="1900" height="1112" xlink:href="../images/CLX_RGB_L_BM-WB_110718.png"  transform="matrix(0.1026 0 0 9.674382e-02 115.5984 52.2992)">
	</image>
	<path id="bground-red" class="st0" d="M24.6,121.8c0,0-2-24.3,1.2-36.3c1.7-6.3,56.4-36.9,102.4-56.1
		c41.7-17.3,76.1-28.3,76.1-28.3s13.1-2.6,17.2,0c2,1.3,47.4,12.1,90.3,32.9c44.7,21.7,86.3,47,88.1,49.1c4.1,4.8,3.4,9.9,3.3,29.1
		c0,9.6-1,10.5-3.5,13.7c-0.7,0.8-43.9,28.3-84.8,47.2c-48.5,22.4-88.7,34.4-101.4,35.9c-3.5,0.4-52.8-13-103.2-36.7
		C65.8,151.3,31,129.7,24.6,121.8z"/>
	<path id="bground-yellow" class="st1" d="M34.2,104.5c0,0,14.2-10.8,34.9-22.7c14.5-8.3,30-17,47.2-24.9
		c49.1-22.4,93.7-37.1,98.1-36.8c0.7,0,2.8,0.6,6.7,1.8c9.7,2.9,29.5,9.3,59,21.4c18.6,7.6,37,15.2,58.2,26.9
		c27.1,15,55.1,33.7,54.6,34.7c-0.4,0.8-43.6,29.8-82,47.8c-16.9,7.9-42.2,20-67.3,27.7c-6.9,2.1-13.2,4.3-19.6,6.2
		c-3.1,0.9-5.8,2.2-9.2,2.6c-2.3,0.2-5.2-1-8.2-1.9c-4-1.1-13.8-4-18-5.6c-8.6-3.3-11.4-3.8-17.4-6.2c-21.1-8.1-36.1-14.7-50.7-21.4
		c-12.5-5.7-31.3-15.7-42.4-21.9C52.4,117.9,39.1,108.2,34.2,104.5z"/>
	<radialGradient id="bground-blue_1_" cx="311.1697" cy="61.4448" r="94.5909" gradientUnits="userSpaceOnUse">
		<stop  offset="0" style="stop-color:#FFFFFF"/>
		<stop  offset="1" style="stop-color:#1D427A"/>
	</radialGradient>
	<path id="bground-blue" class="st2" d="M34.2,104.5c0,0,15.3-12.5,36-23.6c14.5-7.8,30.8-16.7,48-24.1c49.1-21,91.9-32.9,96.3-32.5
		c8.1,0.8,25.3,5.6,66.5,21.3c18.6,7.1,36.5,14.1,57.7,25.1c27.1,14,55.5,32.8,55,33.7c-0.4,0.7-39,27.9-77.3,44.8
		c-16.9,7.4-46.9,19.5-72.1,26.8c-6.9,2-13,3.7-19.3,5.5c-3.1,0.8-7,2.4-10.5,2.7c-2.3,0.2-3.2-0.1-6.3-0.8c-4-1-13.7-3.4-17.2-4.5
		c-8.8-2.7-14.4-4.8-20.4-7c-21.1-7.6-33.5-12.5-48.3-18.2c-15.9-6.2-18.6-7.5-46.9-23C50,116.9,39.1,107.9,34.2,104.5z"/>
</g>
<g id="text">
	<text transform="matrix(1 0 0 1 91.514 122.057)" class="st3 st4 st5">CAMERON’S</text>
	<text transform="matrix(1 0 0 1 143.073 153.6107)" class="st3 st6 st7">BREWING</text>
	<path class="st8" d="M294,38.6"/>
	<text transform="matrix(0.9469 -0.3216 0.3216 0.9469 175.7701 28.2343)" class="st3 st6 st9">EST.</text>
	<text transform="matrix(0.9452 0.3266 -0.3266 0.9452 215.2348 15.9571)" class="st3 st6 st9">1997</text>
	<text transform="matrix(0.9394 0.3429 -0.3429 0.9394 129.8431 177.0997)" class="st3 st6 st9">OAKVILLE,</text>
	<text transform="matrix(0.9459 -0.3246 0.3246 0.9459 222.2164 205.748)" class="st3 st6 st9">ONTARIO</text>
</g>
</svg>
