<svg xmlns="http://www.w3.org/2000/svg" xmlns:xlink="http://www.w3.org/1999/xlink" viewBox="0 0 198 108"><defs><style>.cls-1{fill:#ef3f24;}.cls-2{fill:#fed61a;}.cls-3{fill:url(#radial-gradient);}.cls-4{font-size:34.01px;font-family:BebasNeue-Regular, Bebas Neue;letter-spacing:0.01em;}.cls-10,.cls-12,.cls-4,.cls-5,.cls-6,.cls-9{fill:#fff;}.cls-5{font-size:15.87px;letter-spacing:-0.01em;}.cls-10,.cls-12,.cls-5,.cls-6,.cls-9{font-family:Roboto-Regular, Roboto;}.cls-6{font-size:10.2px;letter-spacing:-0.01em;}.cls-7{letter-spacing:-0.12em;}.cls-8{letter-spacing:-0.01em;}.cls-12,.cls-9{font-size:10.2px;}.cls-9{letter-spacing:-0.01em;}.cls-10{font-size:9.07px;letter-spacing:-0.02em;}.cls-11{letter-spacing:-0.01em;}.cls-12{letter-spacing:-0.01em;}.cls-13{letter-spacing:-0.02em;}.cls-14{letter-spacing:-0.05em;}.cls-15{letter-spacing:-0.01em;}</style><radialGradient id="radial-gradient" cx="148.79" cy="31.26" r="48.12" gradientUnits="userSpaceOnUse"><stop offset="0" stop-color="#fff"/><stop offset="1" stop-color="#1d427a"/></radialGradient></defs><title>cameronsLogo</title><g id="bground"><path id="bground-red" class="cls-1" d="M3,62S2,49.61,3.62,43.5C4.46,40.3,32.3,24.72,55.72,15,76.94,6.15,94.46.58,94.46.58s6.68-1.31,8.76,0c1,.65,24.1,6.14,45.94,16.76,22.72,11,43.92,23.92,44.83,25,2.06,2.43,1.72,5,1.7,14.83,0,4.89-.49,5.33-1.77,7-.34.43-22.32,14.39-43.16,24-24.67,11.4-45.12,17.52-51.57,18.26-1.79.2-26.87-6.63-52.49-18.7C24,77,6.24,66,3,62Z"/><path id="bground-yellow" class="cls-2" d="M7.87,53.19A180.43,180.43,0,0,1,25.64,41.62C33,37.39,40.93,33,49.65,29c25-11.42,47.69-18.88,49.93-18.75a25.83,25.83,0,0,1,3.4.89c4.91,1.47,15,4.75,30,10.9a263,263,0,0,1,29.63,13.69c13.8,7.64,28,17.14,27.77,17.63S168.22,68.48,148.7,77.66c-8.59,4-21.46,10.15-34.25,14.11-3.49,1.08-6.74,2.19-10,3.15a24,24,0,0,1-4.69,1.31c-1.2.12-2.64-.53-4.18-.94a60.9,60.9,0,0,1-6.38-1.81c-4.39-1.67-8.58-3-11.67-4.16-10.73-4.13-18.39-7.47-25.8-10.87-6.36-2.93-15.95-8-21.58-11.14A206.22,206.22,0,0,1,7.87,53.19Z"/><path id="bground-blue" class="cls-3" d="M7.87,53.19a127.61,127.61,0,0,1,18.32-12c7.37-4,15.68-8.52,24.41-12.25,25-10.68,46.74-16.75,49-16.52,4.13.41,12.86,2.82,33.83,10.86A268.17,268.17,0,0,1,162.8,36c13.81,7.14,28.23,16.69,28,17.15S171,67.4,151.43,76a330.71,330.71,0,0,1-36.65,13.64c-3.5,1-6.6,1.89-9.84,2.79a33.65,33.65,0,0,1-5.34,1.39c-1.19.11-1.11-.17-2.64-.56-2-.51-5.26-1-7.43-1.81-4.39-1.57-9.16-2.78-12.25-3.9-10.72-3.86-17.05-6.34-24.56-9.27-8.07-3.16-9.45-3.81-23.83-11.7A169.21,169.21,0,0,1,7.87,53.19Z"/></g><g id="text"><text class="cls-4" transform="translate(39.89 61.08)">CAMERON’S</text><text class="cls-5" transform="translate(66.34 76.11)">BREWING</text><text class="cls-6" transform="matrix(0.95, -0.32, 0.32, 0.95, 79.43, 15.5)">ES<tspan class="cls-7" x="11.65" y="0">T</tspan><tspan class="cls-8" x="16.55" y="0">.</tspan></text><text class="cls-9" transform="translate(98.89 8.69) rotate(19.06)">1997</text><text class="cls-10" transform="matrix(0.94, 0.34, -0.34, 0.94, 56.78, 90.18)">O<tspan class="cls-11" x="6.05" y="0">AKVILLE,</tspan></text><text class="cls-12" transform="matrix(0.95, -0.32, 0.32, 0.95, 101.73, 105.29)">O<tspan class="cls-13" x="6.91" y="0">N</tspan><tspan class="cls-14" x="13.94" y="0">T</tspan><tspan class="cls-15" x="19.53" y="0">ARIO</tspan></text></g></svg>