<?xml version="1.0" encoding="utf-8"?>
<!-- Generator: Adobe Illustrator 24.0.3, SVG Export Plug-In . SVG Version: 6.00 Build 0)  -->
<svg version="1.1" id="Layer_1" xmlns="http://www.w3.org/2000/svg" xmlns:xlink="http://www.w3.org/1999/xlink" x="0px" y="0px"
	 viewBox="0 0 50 50" style="enable-background:new 0 0 50 50;" xml:space="preserve">
<style type="text/css">
	.st0{fill:#E19F26;}
	.st1{fill:#FFFFFF;}
</style>
<g>
	<path class="st0" d="M49.2,24.7c0,13.3-10.7,24-24,24c-13.3,0-24-10.7-24-24c0-13.3,10.7-24,24-24C38.4,0.7,49.2,11.5,49.2,24.7z"
		/>
	<g>
		<path class="st1" d="M21.2,39.7h6c0,0,0-8.3,0-15h4.5l0.5-6h-4.8v-2.4c0-1.2,0.8-1.4,1.3-1.4c0.5,0,3.4,0,3.4,0V9.8l-4.6,0
			c-5.1,0-6.3,3.8-6.3,6.3v2.7h-3v6h3C21.2,31.5,21.2,39.7,21.2,39.7z"/>
	</g>
</g>
</svg>
