<?xml version="1.0" encoding="utf-8"?>
<!-- Generator: Adobe Illustrator 24.0.3, SVG Export Plug-In . SVG Version: 6.00 Build 0)  -->
<svg version="1.1" id="Layer_1" xmlns="http://www.w3.org/2000/svg" xmlns:xlink="http://www.w3.org/1999/xlink" x="0px" y="0px"
	 viewBox="0 0 50 50" style="enable-background:new 0 0 50 50;" xml:space="preserve">
<style type="text/css">
	.st0{fill:#E19F26;}
	.st1{fill:#FFFFFF;}
</style>
<g>
	<path class="st0" d="M49.2,24.7c0,13.3-10.7,24-24,24c-13.3,0-24-10.7-24-24c0-13.3,10.7-24,24-24C38.4,0.7,49.2,11.5,49.2,24.7z"
		/>
	<g>
		<path class="st1" d="M34.4,9.7H16c-3.2,0-5.8,2.6-5.8,5.8v6.1v12.3c0,3.2,2.6,5.8,5.8,5.8h18.4c3.2,0,5.8-2.6,5.8-5.8V21.7v-6.1
			C40.2,12.3,37.6,9.7,34.4,9.7z M36,13.2l0.7,0v0.7v4.4l-5.1,0l0-5.1L36,13.2z M20.9,21.7c1-1.3,2.5-2.2,4.3-2.2s3.3,0.9,4.3,2.2
			c0.6,0.9,1,1.9,1,3.1c0,2.9-2.4,5.3-5.3,5.3c-2.9,0-5.3-2.4-5.3-5.3C19.9,23.6,20.2,22.5,20.9,21.7z M37.2,33.9
			c0,1.6-1.3,2.9-2.9,2.9H16c-1.6,0-2.9-1.3-2.9-2.9V21.7h4.5c-0.4,1-0.6,2-0.6,3.1c0,4.5,3.7,8.2,8.2,8.2c4.5,0,8.2-3.7,8.2-8.2
			c0-1.1-0.2-2.1-0.6-3.1h4.5V33.9z"/>
	</g>
</g>
</svg>
