<?xml version="1.0" encoding="utf-8"?>
<!-- Generator: Adobe Illustrator 24.0.3, SVG Export Plug-In . SVG Version: 6.00 Build 0)  -->
<svg version="1.1" id="Layer_1" xmlns="http://www.w3.org/2000/svg" xmlns:xlink="http://www.w3.org/1999/xlink" x="0px" y="0px"
	 viewBox="0 0 50 50" style="enable-background:new 0 0 50 50;" xml:space="preserve">
<style type="text/css">
	.st0{fill:#E19F26;}
	.st1{fill:#FFFFFF;}
</style>
<g>
	<path class="st0" d="M49.2,24.7c0,13.3-10.7,24-24,24c-13.3,0-24-10.7-24-24c0-13.3,10.7-24,24-24C38.4,0.7,49.2,11.5,49.2,24.7z"
		/>
	<g>
		<path class="st1" d="M33.2,29.9c-0.2,0-0.4,0.1-0.5,0.2c-0.1,0.1-0.2,0.4-0.2,0.7v0.8h1.3v-0.8c0-0.3-0.1-0.6-0.2-0.7
			C33.6,30,33.4,29.9,33.2,29.9z"/>
		<g>
			<path class="st1" d="M27.9,29.9c-0.1,0-0.2,0-0.3,0.1c-0.1,0-0.2,0.1-0.3,0.2V35c0.1,0.1,0.2,0.2,0.4,0.3
				c0.1,0.1,0.2,0.1,0.4,0.1c0.2,0,0.3-0.1,0.4-0.2c0.1-0.1,0.1-0.3,0.1-0.5v-4c0-0.3-0.1-0.5-0.2-0.6C28.3,30,28.1,29.9,27.9,29.9z
				"/>
			<g>
				<path class="st1" d="M34.7,23.7h-19c-3,0-5.5,2.8-5.5,5.9v4.5c0,3.1,2.5,5.6,5.5,5.6h19c3,0,5.5-2.5,5.5-5.6v-4.5
					C40.2,26.5,37.7,23.7,34.7,23.7z M19.6,27.5h-1.8v9h-1.7v-9h-1.8V26h5.2V27.5z M24.6,36.5h-1.5v-0.9c-0.3,0.3-0.6,0.6-0.9,0.7
					c-0.3,0.2-0.6,0.2-0.9,0.2c-0.4,0-0.6-0.1-0.8-0.3c-0.2-0.2-0.3-0.6-0.3-1v-6.5h1.5v6c0,0.2,0,0.3,0.1,0.4
					c0.1,0.1,0.2,0.1,0.3,0.1c0.1,0,0.3-0.1,0.4-0.2c0.2-0.1,0.3-0.2,0.5-0.4v-5.9h1.5V36.5z M30.1,34.9c0,0.5-0.1,1-0.4,1.3
					c-0.2,0.3-0.6,0.4-1,0.4c-0.3,0-0.6-0.1-0.8-0.2c-0.2-0.1-0.4-0.3-0.6-0.5v0.6h-1.5V26h1.5v3.4c0.2-0.2,0.4-0.4,0.7-0.5
					c0.2-0.1,0.5-0.2,0.7-0.2c0.5,0,0.8,0.2,1.1,0.5c0.3,0.3,0.4,0.8,0.4,1.5V34.9z M35.4,32.8h-2.9v1.5c0,0.4,0,0.7,0.1,0.9
					c0.1,0.2,0.3,0.2,0.5,0.2c0.3,0,0.4-0.1,0.5-0.2c0.1-0.1,0.2-0.4,0.2-0.9v-0.4h1.6v0.4c0,0.8-0.2,1.4-0.6,1.8
					c-0.4,0.4-0.9,0.6-1.7,0.6c-0.7,0-1.2-0.2-1.6-0.6c-0.4-0.4-0.6-1-0.6-1.8v-3.5c0-0.7,0.2-1.2,0.6-1.6c0.4-0.4,1-0.6,1.7-0.6
					c0.7,0,1.2,0.2,1.6,0.6c0.4,0.4,0.6,1,0.6,1.7V32.8z"/>
				<polygon class="st1" points="15.8,9.7 18.1,16.7 18.1,21.3 20,21.3 20,16.5 22.3,9.7 20.3,9.7 19.1,14.4 19,14.4 17.8,9.7 				
					"/>
				<path class="st1" d="M23.1,13.1c-0.5,0.4-0.7,0.9-0.7,1.6v4.4c0,0.7,0.2,1.3,0.7,1.7c0.5,0.4,1,0.6,1.8,0.6
					c0.8,0,1.4-0.2,1.8-0.6c0.4-0.4,0.7-1,0.7-1.7v-4.4c0-0.7-0.2-1.2-0.7-1.6c-0.5-0.4-1-0.6-1.7-0.6
					C24.2,12.6,23.6,12.8,23.1,13.1z M25.6,14.7v4.7c0,0.2-0.1,0.4-0.2,0.5c-0.1,0.1-0.3,0.2-0.6,0.2c-0.2,0-0.4-0.1-0.5-0.2
					c-0.1-0.1-0.2-0.3-0.2-0.5v-4.7c0-0.2,0.1-0.3,0.2-0.5c0.1-0.1,0.3-0.2,0.5-0.2c0.2,0,0.4,0.1,0.5,0.2
					C25.6,14.3,25.6,14.5,25.6,14.7z"/>
				<path class="st1" d="M33.6,21.3v-8.6h-1.7v6.5c-0.2,0.2-0.3,0.3-0.5,0.5c-0.2,0.1-0.4,0.2-0.5,0.2c-0.2,0-0.3,0-0.3-0.1
					c-0.1-0.1-0.1-0.2-0.1-0.4v-6.6h-1.7v7.1c0,0.5,0.1,0.9,0.3,1.1c0.2,0.3,0.5,0.4,0.9,0.4c0.3,0,0.7-0.1,1-0.3
					c0.3-0.2,0.7-0.4,1-0.8v0.9H33.6z"/>
			</g>
		</g>
	</g>
</g>
</svg>
